<?xml version="1.0" encoding="UTF-8"?>
<svg version="1.1" xmlns="http://www.w3.org/2000/svg" width="16" height="16">
<path d="M0 0 C5.28 0 10.56 0 16 0 C16 5.28 16 10.56 16 16 C10.72 16 5.44 16 0 16 C0 10.72 0 5.44 0 0 Z " fill="#E4E4E4" transform="translate(0,0)"/>
<path d="M0 0 C-1 2 -2 4 -3 6 C-4.32 6 -5.64 6 -7 6 C-7.33 6.66 -7.66 7.32 -8 8 C-8.66 8 -9.32 8 -10 8 C-10 6.02 -10 4.04 -10 2 C-10.66 2 -11.32 2 -12 2 C-12 1.01 -12 0.02 -12 -1 C-7.48281619 -2.36884358 -4.41225737 -1.47075246 0 0 Z " fill="#EEEEEE" transform="translate(14,4)"/>
<path d="M0 0 C3.48584286 0.03134751 6.09479083 0.60989542 9.25 2.1875 C8.57829194 5.9938457 7.52253436 9.53956816 6.25 13.1875 C3.28 13.1875 0.31 13.1875 -2.75 13.1875 C-2.894375 12.135625 -3.03875 11.08375 -3.1875 10 C-3.51796096 7.76020903 -3.89405121 5.52486442 -4.375 3.3125 C-4.49875 2.61125 -4.6225 1.91 -4.75 1.1875 C-3.75 0.1875 -3.75 0.1875 0 0 Z M-3.75 2.1875 C-3.75 3.1775 -3.75 4.1675 -3.75 5.1875 C-3.09 5.1875 -2.43 5.1875 -1.75 5.1875 C-1.75 7.1675 -1.75 9.1475 -1.75 11.1875 C-0.76 11.1875 0.23 11.1875 1.25 11.1875 C1.25 10.5275 1.25 9.8675 1.25 9.1875 C2.57 9.1875 3.89 9.1875 5.25 9.1875 C7.15201742 7.45711928 7.15201742 7.45711928 8.25 5.1875 C7.92 4.1975 7.59 3.2075 7.25 2.1875 C3.23195309 1.34651344 0.23196457 1.13345055 -3.75 2.1875 Z " fill="#454545" transform="translate(5.75,0.8125)"/>
<path d="M0 0 C4.29 0 8.58 0 13 0 C13 0.33 13 0.66 13 1 C9.37 1.33 5.74 1.66 2 2 C2.33 3.65 2.66 5.3 3 7 C3.11678799 9.67678073 3.0454506 12.31841457 3 15 C3.66 15.33 4.32 15.66 5 16 C3.35 16 1.7 16 0 16 C0 10.72 0 5.44 0 0 Z " fill="#FBFBFB" transform="translate(0,0)"/>
<path d="M0 0 C0.66 0 1.32 0 2 0 C2.66 1.32 3.32 2.64 4 4 C5.98 4 7.96 4 10 4 C9.67 5.32 9.34 6.64 9 8 C6.36 8 3.72 8 1 8 C0.67 5.36 0.34 2.72 0 0 Z " fill="#383838" transform="translate(2,6)"/>
</svg>
